<svg xmlns="http://www.w3.org/2000/svg" version="1.1" viewBox="0.00 0.00 96.00 96.00">
<path fill="#000000" d="
  M 44.38 24.07
  Q 34.52 38.53 16.16 44.70
  Q 15.90 44.79 15.82 44.53
  L 14.21 39.55
  A 0.42 0.42 0.0 0 1 14.47 39.02
  C 30.72 32.98 44.66 21.23 44.95 3.50
  Q 44.96 3.00 45.46 3.00
  L 50.51 3.00
  Q 51.02 3.00 51.03 3.51
  C 51.40 21.23 65.76 33.54 81.70 39.03
  Q 81.92 39.11 81.85 39.33
  L 80.14 44.65
  Q 80.09 44.80 79.94 44.75
  Q 64.74 39.63 54.96 28.55
  Q 53.05 26.38 51.91 24.28
  Q 51.04 22.69 51.04 24.51
  L 50.92 92.07
  Q 50.91 93.00 49.99 93.00
  L 46.00 93.00
  Q 45.01 93.00 45.01 92.00
  L 44.99 24.26
  Q 44.99 23.17 44.38 24.07
  Z"
/>
</svg>